<svg width="23" height="25" viewBox="0 0 23 25" fill="none" xmlns="http://www.w3.org/2000/svg">
<path d="M18.4 20C17.1235 20 16.1 21.1125 16.1 22.5C16.1 23.163 16.3423 23.7989 16.7737 24.2678C17.205 24.7366 17.79 25 18.4 25C19.01 25 19.595 24.7366 20.0263 24.2678C20.4577 23.7989 20.7 23.163 20.7 22.5C20.7 21.837 20.4577 21.2011 20.0263 20.7322C19.595 20.2634 19.01 20 18.4 20ZM0 0V2.5H2.3L6.44 11.9875L4.876 15.05C4.7035 15.4 4.6 15.8125 4.6 16.25C4.6 16.913 4.84232 17.5489 5.27365 18.0178C5.70499 18.4866 6.29 18.75 6.9 18.75H20.7V16.25H7.383C7.30675 16.25 7.23362 16.2171 7.17971 16.1585C7.12579 16.0999 7.0955 16.0204 7.0955 15.9375C7.0955 15.875 7.107 15.825 7.13 15.7875L8.165 13.75H16.7325C17.595 13.75 18.354 13.225 18.745 12.4625L22.862 4.375C22.9425 4.175 23 3.9625 23 3.75C23 3.41848 22.8788 3.10054 22.6632 2.86612C22.4475 2.6317 22.155 2.5 21.85 2.5H4.8415L3.7605 0M6.9 20C5.6235 20 4.6 21.1125 4.6 22.5C4.6 23.163 4.84232 23.7989 5.27365 24.2678C5.70499 24.7366 6.29 25 6.9 25C7.51 25 8.09501 24.7366 8.52635 24.2678C8.95768 23.7989 9.2 23.163 9.2 22.5C9.2 21.837 8.95768 21.2011 8.52635 20.7322C8.09501 20.2634 7.51 20 6.9 20Z" fill="white"/>
</svg>
