<svg width="24" height="25" viewBox="0 0 24 25" fill="none" xmlns="http://www.w3.org/2000/svg">
<path d="M18.6918 8.14559L23.1369 5.68725C22.9593 5.51471 22.7465 5.37696 22.4867 5.23873L14.1518 0.621078C13.4188 0.218627 12.7091 0 11.9998 0C11.2906 0 10.5814 0.218137 9.84789 0.620588L7.44827 1.94118L18.6918 8.14559ZM11.9998 11.8338L17.0483 9.05343L5.85221 2.83774L1.51301 5.23922C1.25272 5.37647 1.04035 5.51471 0.862278 5.68725L11.9998 11.8338ZM12.8039 25C12.8866 24.977 12.9573 24.9426 13.0405 24.8971L22.2975 19.7725C23.3972 19.1637 24 18.5431 24 16.8775V7.92745C24 7.58284 23.9647 7.30686 23.9057 7.05441L12.8039 13.2123V25ZM11.1958 25V13.2123L0.0950226 7.05441C0.0290608 7.34076 -0.0027604 7.63354 0.000187502 7.92696V16.8775C0.000187502 18.5431 0.602995 19.1637 1.70268 19.7725L10.9602 24.8966C11.0429 24.9426 11.113 24.977 11.1958 25Z" fill="white"/>
</svg>
