<svg width="22" height="25" viewBox="0 0 22 25" fill="none" xmlns="http://www.w3.org/2000/svg">
<path fill-rule="evenodd" clip-rule="evenodd" d="M6.11111 5.55556C6.11111 4.08213 6.62619 2.66905 7.54303 1.62718C8.45988 0.585316 9.70339 0 11 0C12.2966 0 13.5401 0.585316 14.457 1.62718C15.3738 2.66905 15.8889 4.08213 15.8889 5.55556C15.8889 7.02898 15.3738 8.44206 14.457 9.48393C13.5401 10.5258 12.2966 11.1111 11 11.1111C9.70339 11.1111 8.45988 10.5258 7.54303 9.48393C6.62619 8.44206 6.11111 7.02898 6.11111 5.55556ZM6.11111 13.8889C4.49034 13.8889 2.93596 14.6205 1.7899 15.9229C0.643847 17.2252 0 18.9916 0 20.8333C0 21.9384 0.386309 22.9982 1.07394 23.7796C1.76158 24.561 2.69421 25 3.66667 25H18.3333C19.3058 25 20.2384 24.561 20.9261 23.7796C21.6137 22.9982 22 21.9384 22 20.8333C22 18.9916 21.3562 17.2252 20.2101 15.9229C19.064 14.6205 17.5097 13.8889 15.8889 13.8889H6.11111Z" fill="white"/>
</svg>
