<svg width="139" height="109" viewBox="0 0 139 109" fill="none" xmlns="http://www.w3.org/2000/svg">
<path d="M81.8947 99.0927C81.8947 101.052 81.3125 102.968 80.2217 104.597C79.1309 106.226 77.5805 107.496 75.7666 108.246C73.9527 108.996 71.9567 109.192 70.0311 108.81C68.1054 108.427 66.3366 107.484 64.9483 106.098C63.56 104.713 62.6145 102.947 62.2315 101.025C61.8485 99.1036 62.045 97.1116 62.7964 95.3013C63.5477 93.4909 64.8201 91.9436 66.4526 90.855C68.0851 89.7663 70.0043 89.1853 71.9677 89.1853C74.6005 89.1853 77.1255 90.2291 78.9871 92.0871C80.8488 93.9451 81.8947 96.4651 81.8947 99.0927ZM127.186 22.3106L136.816 12.7067C138.214 11.3108 139 9.41752 139 7.44341C139 5.46929 138.214 3.57603 136.816 2.18012C135.417 0.784215 133.52 4.65117e-08 131.542 0C129.564 -4.65117e-08 127.667 0.784215 126.268 2.18012L116.639 11.7841L107.016 2.19251C105.617 0.796597 103.72 0.0123845 101.742 0.0123845C99.7644 0.0123845 97.8674 0.796597 96.4687 2.19251C95.07 3.58842 94.2842 5.48168 94.2842 7.45579C94.2842 9.4299 95.07 11.3232 96.4687 12.7191L106.092 22.3106L96.4811 31.9146C95.0824 33.3105 94.2967 35.2037 94.2967 37.1779C94.2967 39.152 95.0824 41.0452 96.4811 42.4411C97.8798 43.8371 99.7768 44.6213 101.755 44.6213C103.733 44.6213 105.63 43.8371 107.028 42.4411L116.639 32.8372L126.262 42.4473C126.955 43.1385 127.777 43.6868 128.682 44.0609C129.586 44.4349 130.556 44.6275 131.536 44.6275C132.515 44.6275 133.485 44.4349 134.39 44.0609C135.295 43.6868 136.117 43.1385 136.809 42.4473C137.502 41.7561 138.051 40.9356 138.426 40.0325C138.801 39.1294 138.994 38.1615 138.994 37.184C138.994 36.2066 138.801 35.2387 138.426 34.3356C138.051 33.4325 137.502 32.6119 136.809 31.9208L127.186 22.3106ZM101.19 68.9371C92.7053 62.7762 82.4823 59.4575 71.9894 59.4575C61.4965 59.4575 51.2736 62.7762 42.7887 68.9371C41.1925 70.0974 40.1236 71.8429 39.817 73.7897C39.5104 75.7366 39.9913 77.7252 41.1538 79.3182C42.3163 80.9112 44.0653 81.978 46.016 82.284C47.9667 82.59 49.9593 82.11 51.5554 80.9498C57.4936 76.6401 64.6471 74.3188 71.9894 74.3188C79.3317 74.3188 86.4852 76.6401 92.4234 80.9498C94.0196 82.11 96.0122 82.59 97.9628 82.284C99.9135 81.978 101.662 80.9112 102.825 79.3182C103.988 77.7252 104.468 75.7366 104.162 73.7897C103.855 71.8429 102.786 70.0974 101.19 68.9371ZM79.4129 7.4496C79.4129 5.4789 78.6285 3.58892 77.2323 2.19543C75.836 0.801936 73.9423 0.019081 71.9677 0.019081C46.7192 0.032062 22.2529 8.76356 2.72097 24.7317C1.96527 25.351 1.33918 26.1127 0.878441 26.9734C0.417702 27.8341 0.13134 28.7769 0.0357024 29.7481C-0.0599347 30.7192 0.0370271 31.6997 0.321051 32.6334C0.605075 33.5672 1.0706 34.436 1.69104 35.1902C2.31149 35.9444 3.0747 36.5693 3.93711 37.0291C4.79952 37.4889 5.74423 37.7747 6.71731 37.8702C7.69039 37.9656 8.67278 37.8688 9.60839 37.5854C10.544 37.3019 11.4145 36.8373 12.1702 36.2181C29.0378 22.4308 50.165 14.8918 71.9677 14.8801C73.9423 14.8801 75.836 14.0973 77.2323 12.7038C78.6285 11.3103 79.4129 9.42029 79.4129 7.4496ZM79.4129 37.1717C79.4129 35.201 78.6285 33.311 77.2323 31.9175C75.836 30.524 73.9423 29.7411 71.9677 29.7411C54.0627 29.675 36.6719 35.7131 22.6742 46.8561C21.1652 48.0922 20.2031 49.8704 19.995 51.8076C19.7869 53.7449 20.3496 55.6862 21.5617 57.2134C22.7739 58.7407 24.5386 59.7316 26.4758 59.9729C28.4129 60.2142 30.3675 59.6865 31.9186 58.5034C43.2916 49.4514 57.421 44.547 71.9677 44.6022C73.9423 44.6022 75.836 43.8193 77.2323 42.4258C78.6285 41.0323 79.4129 39.1424 79.4129 37.1717Z" fill="#FCC42E"/>
</svg>
