<svg width="29" height="23" viewBox="0 0 29 23" fill="none" xmlns="http://www.w3.org/2000/svg">
<path d="M11.6 16.4286L19.1255 11.5L11.6 6.57143V16.4286ZM28.362 3.565C28.5505 4.33714 28.681 5.37214 28.768 6.68643C28.8695 8.00071 28.913 9.13429 28.913 10.12L29 11.5C29 15.0979 28.768 17.7429 28.362 19.435C27.9995 20.9136 27.1585 21.8664 25.8535 22.2771C25.172 22.4907 23.925 22.6386 22.011 22.7371C20.126 22.8521 18.4005 22.9014 16.8055 22.9014L14.5 23C8.4245 23 4.64 22.7371 3.1465 22.2771C1.8415 21.8664 1.0005 20.9136 0.638 19.435C0.4495 18.6629 0.319 17.6279 0.232 16.3136C0.1305 14.9993 0.0869999 13.8657 0.0869999 12.88L0 11.5C0 7.90214 0.232 5.25714 0.638 3.565C1.0005 2.08643 1.8415 1.13357 3.1465 0.722857C3.828 0.509286 5.075 0.361428 6.989 0.262857C8.874 0.147857 10.5995 0.0985713 12.1945 0.0985713L14.5 0C20.5755 0 24.36 0.262857 25.8535 0.722857C27.1585 1.13357 27.9995 2.08643 28.362 3.565Z" fill="black"/>
</svg>
