<svg width="29" height="29" viewBox="0 0 29 29" fill="none" xmlns="http://www.w3.org/2000/svg">
<path fill-rule="evenodd" clip-rule="evenodd" d="M23.3025 13.85C24.1569 12.9822 24.6315 11.8105 24.622 10.5927C24.6125 9.37495 24.1196 8.21082 23.2518 7.35645C22.8221 6.93341 22.3133 6.59915 21.7544 6.37275C21.1955 6.14635 20.5975 6.03225 19.9945 6.03696C18.7767 6.04648 17.6126 6.53937 16.7582 7.4072C16.5262 7.6392 16.2314 7.92397 15.8737 8.26149L14.8792 9.19795L13.8848 8.26149C13.5263 7.92316 13.2311 7.6384 12.9991 7.4072C12.138 6.5461 10.9701 6.06234 9.75229 6.06234C8.5345 6.06234 7.3666 6.5461 6.50549 7.4072C4.73166 9.18224 4.71112 12.052 6.44024 13.8355L14.8792 22.2745L23.3025 13.85ZM5.47962 6.38254C6.04066 5.82135 6.70676 5.37618 7.43987 5.07246C8.17299 4.76873 8.95875 4.61241 9.75229 4.61241C10.5458 4.61241 11.3316 4.76873 12.0647 5.07246C12.7978 5.37618 13.4639 5.82135 14.025 6.38254C14.2449 6.60326 14.5296 6.87795 14.8792 7.20662C15.2272 6.87795 15.512 6.60286 15.7335 6.38133C16.8579 5.23965 18.3898 4.59139 19.9921 4.57916C21.5944 4.56692 23.136 5.19171 24.2777 6.31608C25.4193 7.44045 26.0676 8.97229 26.0798 10.5746C26.0921 12.177 25.4673 13.7185 24.3429 14.8602L15.7335 23.4708C15.5069 23.6973 15.1997 23.8246 14.8792 23.8246C14.5588 23.8246 14.2515 23.6973 14.025 23.4708L5.41316 14.859C4.30879 13.72 3.69674 12.1924 3.70917 10.6059C3.7216 9.01952 4.35753 7.50164 5.47962 6.38012V6.38254Z" fill="#FFDF02"/>
</svg>
