<svg width="29" height="29" viewBox="0 0 29 29" fill="none" xmlns="http://www.w3.org/2000/svg">
<path d="M20.5418 21.75C19.2006 21.75 18.1252 22.8254 18.1252 24.1666C18.1252 24.8076 18.3798 25.4223 18.833 25.8755C19.2862 26.3287 19.9009 26.5833 20.5418 26.5833C21.1828 26.5833 21.7975 26.3287 22.2507 25.8755C22.7039 25.4223 22.9585 24.8076 22.9585 24.1666C22.9585 23.5257 22.7039 22.911 22.2507 22.4578C21.7975 22.0046 21.1828 21.75 20.5418 21.75ZM1.2085 2.41663V4.83329H3.62516L7.97516 14.0045L6.33183 16.965C6.15058 17.3033 6.04183 17.702 6.04183 18.125C6.04183 18.7659 6.29644 19.3806 6.74965 19.8338C7.20287 20.287 7.81756 20.5416 8.4585 20.5416H22.9585V18.125H8.966C8.88588 18.125 8.80904 18.0931 8.75239 18.0365C8.69574 17.9798 8.66391 17.903 8.66391 17.8229C8.66391 17.7625 8.676 17.7141 8.70016 17.6779L9.78766 15.7083H18.7897C19.696 15.7083 20.4935 15.2008 20.9043 14.4637L25.2302 6.64579C25.3147 6.45246 25.3752 6.24704 25.3752 6.04163C25.3752 5.72116 25.2479 5.41381 25.0212 5.18721C24.7946 4.9606 24.4873 4.83329 24.1668 4.83329H6.29558L5.15975 2.41663M8.4585 21.75C7.11725 21.75 6.04183 22.8254 6.04183 24.1666C6.04183 24.8076 6.29644 25.4223 6.74965 25.8755C7.20287 26.3287 7.81756 26.5833 8.4585 26.5833C9.09944 26.5833 9.71412 26.3287 10.1673 25.8755C10.6205 25.4223 10.8752 24.8076 10.8752 24.1666C10.8752 23.5257 10.6205 22.911 10.1673 22.4578C9.71412 22.0046 9.09944 21.75 8.4585 21.75Z" fill="#FFDF02"/>
</svg>
