<svg width="28" height="25" viewBox="0 0 28 25" fill="none" xmlns="http://www.w3.org/2000/svg">
<path fill-rule="evenodd" clip-rule="evenodd" d="M2.22192 2.30197C3.64269 0.828018 5.56942 0 7.5784 0C9.58737 0 11.5141 0.828018 12.9349 2.30197C13.2127 2.5892 13.5703 2.94667 14.0077 3.37438C14.4441 2.94667 14.8012 2.5892 15.079 2.30197C16.4938 0.84064 18.4072 0.0177944 20.4034 0.0122466C22.3995 0.0066987 24.3171 0.818897 25.7395 2.27234C27.1618 3.72578 27.974 5.70301 27.9994 7.77434C28.0248 9.84568 27.2615 11.8437 25.8753 13.3343L15.0775 24.5396C14.7933 24.8344 14.408 25 14.0062 25C13.6044 25 13.219 24.8344 12.9349 24.5396L2.13706 13.3359C0.75217 11.8537 -0.0153601 9.86568 0.000233025 7.8012C0.0158262 5.73672 0.814806 3.76145 2.22192 2.30197Z" fill="#F1E7D1"/>
</svg>
