<svg width="16" height="13" viewBox="0 0 16 13" fill="none" xmlns="http://www.w3.org/2000/svg">
<path fill-rule="evenodd" clip-rule="evenodd" d="M1.26967 1.19702C2.08154 0.430569 3.18253 0 4.33051 0C5.4785 0 6.57949 0.430569 7.39136 1.19702C7.5501 1.34638 7.75444 1.53227 8.00439 1.75468C8.25376 1.53227 8.45782 1.34638 8.61656 1.19702C9.42503 0.437133 10.5184 0.0092531 11.6591 0.00636821C12.7997 0.00348332 13.8955 0.425827 14.7083 1.18162C15.521 1.9374 15.9851 2.96556 15.9996 4.04266C16.0142 5.11975 15.578 6.15874 14.7859 6.93384L8.61569 12.7606C8.45332 12.9139 8.23312 13 8.00353 13C7.77393 13 7.55373 12.9139 7.39136 12.7606L1.22118 6.93465C0.429811 6.16391 -0.0087772 5.13015 0.000133157 4.05662C0.00904351 2.9831 0.465603 1.95595 1.26967 1.19702Z" fill="#FF0202"/>
</svg>
