<svg width="37" height="37" viewBox="0 0 37 37" fill="none" xmlns="http://www.w3.org/2000/svg">
<rect width="37" height="37" rx="3" fill="#111111"/>
<rect width="37" height="37" rx="3" fill="#111111"/>
<rect width="37" height="37" rx="3" fill="#111111"/>
<rect width="37" height="37" rx="3" fill="#111111"/>
<path d="M12.96 7H23.04C26.88 7 30 9.99 30 13.67V23.33C30 25.099 29.2667 26.7955 27.9615 28.0464C26.6562 29.2973 24.8859 30 23.04 30H12.96C9.12 30 6 27.01 6 23.33V13.67C6 11.901 6.73328 10.2045 8.03854 8.9536C9.34379 7.70273 11.1141 7 12.96 7ZM12.72 9.3C11.5743 9.3 10.4755 9.73618 9.6653 10.5126C8.85514 11.289 8.4 12.342 8.4 13.44V23.56C8.4 25.8485 10.332 27.7 12.72 27.7H23.28C24.4257 27.7 25.5245 27.2638 26.3347 26.4874C27.1449 25.711 27.6 24.658 27.6 23.56V13.44C27.6 11.1515 25.668 9.3 23.28 9.3H12.72ZM24.3 11.025C24.6978 11.025 25.0794 11.1765 25.3607 11.446C25.642 11.7156 25.8 12.0813 25.8 12.4625C25.8 12.8437 25.642 13.2094 25.3607 13.479C25.0794 13.7485 24.6978 13.9 24.3 13.9C23.9022 13.9 23.5206 13.7485 23.2393 13.479C22.958 13.2094 22.8 12.8437 22.8 12.4625C22.8 12.0813 22.958 11.7156 23.2393 11.446C23.5206 11.1765 23.9022 11.025 24.3 11.025ZM18 12.75C19.5913 12.75 21.1174 13.3558 22.2426 14.4341C23.3679 15.5125 24 16.975 24 18.5C24 20.025 23.3679 21.4875 22.2426 22.5659C21.1174 23.6442 19.5913 24.25 18 24.25C16.4087 24.25 14.8826 23.6442 13.7574 22.5659C12.6321 21.4875 12 20.025 12 18.5C12 16.975 12.6321 15.5125 13.7574 14.4341C14.8826 13.3558 16.4087 12.75 18 12.75ZM18 15.05C17.0452 15.05 16.1295 15.4135 15.4544 16.0605C14.7793 16.7075 14.4 17.585 14.4 18.5C14.4 19.415 14.7793 20.2925 15.4544 20.9395C16.1295 21.5865 17.0452 21.95 18 21.95C18.9548 21.95 19.8705 21.5865 20.5456 20.9395C21.2207 20.2925 21.6 19.415 21.6 18.5C21.6 17.585 21.2207 16.7075 20.5456 16.0605C19.8705 15.4135 18.9548 15.05 18 15.05Z" fill="white"/>
</svg>
