<svg width="24" height="25" viewBox="0 0 28 29" fill="none" xmlns="http://www.w3.org/2000/svg">
<path d="M14 0C6.272 0 0 6.496 0 14.5C0 22.504 6.272 29 14 29C21.728 29 28 22.504 28 14.5C28 6.496 21.728 0 14 0ZM20.496 9.86C20.286 12.151 19.376 17.719 18.914 20.2855C18.718 21.373 18.326 21.7355 17.962 21.779C17.15 21.8515 16.534 21.228 15.75 20.6915C14.518 19.8505 13.818 19.3285 12.628 18.5165C11.242 17.574 12.138 17.052 12.936 16.211C13.146 15.9935 16.73 12.615 16.8 12.3105C16.8097 12.2644 16.8084 12.2165 16.7962 12.171C16.784 12.1255 16.7613 12.0838 16.73 12.0495C16.646 11.977 16.534 12.006 16.436 12.0205C16.31 12.0495 14.35 13.398 10.528 16.066C9.968 16.4575 9.464 16.6605 9.016 16.646C8.512 16.6315 7.56 16.356 6.846 16.1095C5.964 15.8195 5.278 15.66 5.334 15.1525C5.362 14.8915 5.712 14.6305 6.37 14.355C10.458 12.5135 13.174 11.2955 14.532 10.7155C18.424 9.0335 19.222 8.7435 19.754 8.7435C19.866 8.7435 20.132 8.7725 20.3 8.9175C20.44 9.0335 20.482 9.193 20.496 9.309C20.482 9.396 20.51 9.657 20.496 9.86Z" fill="white"/>
</svg>
